<svg width="16" height="16" viewBox="0 0 16 16" fill="none" xmlns="http://www.w3.org/2000/svg">
<g clip-path="url(#clip0_339_28008)">
<path d="M8.27344 13.2324C8.05924 13.2324 7.85189 13.1481 7.65137 12.9795C7.4554 12.8063 7.35742 12.6263 7.35742 12.4395C7.35742 12.2298 7.40072 12.0339 7.4873 11.8516C7.57845 11.6647 7.62174 11.4574 7.61719 11.2295C7.61719 11.1475 7.57845 11.0677 7.50098 10.9902C7.42806 10.9082 7.29134 10.7965 7.09082 10.6553C6.89486 10.514 6.6123 10.3044 6.24316 10.0264C5.89681 9.77116 5.72363 9.47266 5.72363 9.13086C5.72363 9.00326 5.75098 8.89388 5.80566 8.80273C5.86035 8.70703 5.91504 8.61589 5.96973 8.5293C6.02441 8.44271 6.05176 8.35156 6.05176 8.25586C6.05176 8.16927 6.00846 8.08496 5.92188 8.00293C5.83529 7.9209 5.71224 7.80924 5.55273 7.66797L4.55469 6.7998C4.07617 6.38509 3.70703 5.98177 3.44727 5.58984C3.19206 5.19792 3.08496 4.82194 3.12598 4.46191C3.17611 4.12467 3.34473 3.79655 3.63184 3.47754C3.9235 3.15397 4.2972 2.8623 4.75293 2.60254C5.20866 2.33822 5.71452 2.12858 6.27051 1.97363C6.83105 1.81868 7.40299 1.74121 7.98633 1.74121C8.7793 1.74121 9.49023 1.86198 10.1191 2.10352C10.748 2.34049 11.1901 2.65723 11.4453 3.05371C11.3314 3.29069 11.1673 3.514 10.9531 3.72363C10.7435 3.92871 10.5111 4.11784 10.2559 4.29102C10.0007 4.46419 9.75 4.61686 9.50391 4.74902C9.26237 4.88118 9.05273 4.99056 8.875 5.07715C8.9707 5.22754 9.04818 5.36426 9.10742 5.4873C9.16667 5.61035 9.19629 5.72884 9.19629 5.84277C9.19629 6.06152 9.13704 6.24154 9.01855 6.38281C8.90462 6.52409 8.736 6.59473 8.5127 6.59473C8.33496 6.59473 8.15951 6.54915 7.98633 6.45801C7.81771 6.3623 7.6582 6.26888 7.50781 6.17773C7.35742 6.08203 7.22754 6.03418 7.11816 6.03418C7.02246 6.03418 6.93815 6.06152 6.86523 6.11621C6.79688 6.16634 6.7627 6.23926 6.7627 6.33496C6.7627 6.41699 6.80827 6.52181 6.89941 6.64941C6.99512 6.77246 7.11133 6.89551 7.24805 7.01855C7.38932 7.13704 7.5306 7.2373 7.67188 7.31934C7.81315 7.39681 7.93164 7.43555 8.02734 7.43555C8.15951 7.43555 8.30078 7.39681 8.45117 7.31934C8.60612 7.2373 8.75651 7.15755 8.90234 7.08008C9.04818 6.99805 9.17806 6.95703 9.29199 6.95703C9.4834 6.95703 9.70671 7.02539 9.96191 7.16211C10.2171 7.29883 10.4655 7.47201 10.707 7.68164C10.9486 7.89128 11.1468 8.10775 11.3018 8.33105C11.4613 8.5498 11.541 8.74349 11.541 8.91211C11.541 9.14453 11.4567 9.44076 11.2881 9.80078C11.124 10.1608 10.9098 10.5391 10.6455 10.9355C10.3812 11.332 10.0986 11.7035 9.79785 12.0498C9.50163 12.3962 9.2168 12.681 8.94336 12.9043C8.66992 13.123 8.44661 13.2324 8.27344 13.2324ZM8 15.0371C7.04753 15.0371 6.14974 14.8548 5.30664 14.4902C4.4681 14.1257 3.72754 13.6221 3.08496 12.9795C2.44238 12.3369 1.9388 11.5964 1.57422 10.7578C1.20964 9.91471 1.02734 9.01693 1.02734 8.06445C1.02734 7.11198 1.20964 6.21647 1.57422 5.37793C1.9388 4.53483 2.4401 3.79199 3.07812 3.14941C3.7207 2.50684 4.46126 2.00326 5.2998 1.63867C6.1429 1.27409 7.04069 1.0918 7.99316 1.0918C8.94564 1.0918 9.84342 1.27409 10.6865 1.63867C11.5296 2.00326 12.2725 2.50684 12.915 3.14941C13.5576 3.79199 14.0612 4.53483 14.4258 5.37793C14.7904 6.21647 14.9727 7.11198 14.9727 8.06445C14.9727 9.01693 14.7904 9.91471 14.4258 10.7578C14.0612 11.5964 13.5576 12.3369 12.915 12.9795C12.2725 13.6221 11.5296 14.1257 10.6865 14.4902C9.84798 14.8548 8.95247 15.0371 8 15.0371ZM8 14.1074C8.82487 14.1074 9.60189 13.9479 10.3311 13.6289C11.0602 13.3145 11.7028 12.8792 12.2588 12.3232C12.8148 11.7673 13.25 11.1247 13.5645 10.3955C13.8835 9.66634 14.043 8.88932 14.043 8.06445C14.043 7.23958 13.8835 6.46257 13.5645 5.7334C13.25 5.00423 12.8125 4.36165 12.252 3.80566C11.696 3.24967 11.0534 2.81445 10.3242 2.5C9.59505 2.18099 8.81803 2.02148 7.99316 2.02148C7.16829 2.02148 6.39128 2.18099 5.66211 2.5C4.93294 2.81445 4.29036 3.24967 3.73438 3.80566C3.18294 4.36165 2.74772 5.00423 2.42871 5.7334C2.11426 6.46257 1.95703 7.23958 1.95703 8.06445C1.95703 8.88932 2.11426 9.66634 2.42871 10.3955C2.74772 11.1247 3.18522 11.7673 3.74121 12.3232C4.2972 12.8792 4.93978 13.3145 5.66895 13.6289C6.39811 13.9479 7.17513 14.1074 8 14.1074Z" fill="#1D1D1F" fill-opacity="0.6"/>
</g>
<defs>
<clipPath id="clip0_339_28008">
<rect width="16" height="16" rx="8" fill="white"/>
</clipPath>
</defs>
</svg>
